<?xml version="1.0" encoding="UTF-8" standalone="no"?>
<!DOCTYPE svg PUBLIC "-//W3C//DTD SVG 1.1//EN" "http://www.w3.org/Graphics/SVG/1.1/DTD/svg11.dtd">
<!-- Generated by Microsoft Visio, SVG Export abstract.svg Abstract -->
<svg xmlns="http://www.w3.org/2000/svg" xmlns:xlink="http://www.w3.org/1999/xlink" xmlns:ev="http://www.w3.org/2001/xml-events"
		xmlns:v="http://schemas.microsoft.com/visio/2003/SVGExtensions/" width="9.87028in" height="4.10294in"
		viewBox="0 0 710.66 295.411" xml:space="preserve" color-interpolation-filters="sRGB" class="st38">
	<v:documentProperties v:langID="2057" v:metric="true" v:viewMarkup="false">
		<v:userDefs>
			<v:ud v:nameU="msvNoAutoConnect" v:val="VT0(1):26"/>
		</v:userDefs>
	</v:documentProperties>

	<style type="text/css">
	<![CDATA[
		.st1 {fill:#dbeef3;stroke:#000000;stroke-linecap:round;stroke-linejoin:round;stroke-width:0.75}
		.st2 {fill:#ebf1df;stroke:#c4d6a0;stroke-linecap:round;stroke-linejoin:round;stroke-width:0.75}
		.st3 {fill:#000000;font-family:Segoe UI;font-size:0.833336em}
		.st4 {fill:#000000;font-family:Segoe UI;font-size:1.00001em}
		.st5 {fill:#ffffff;fill-opacity:0}
		.st6 {stroke:#000000;stroke-linecap:round;stroke-linejoin:round;stroke-width:0.75;visibility:hidden}
		.st7 {marker-start:url(#mrkr22-45);stroke:#000000;stroke-linecap:round;stroke-linejoin:round;stroke-width:0.75}
		.st8 {fill:#000000;fill-opacity:1;stroke:#000000;stroke-opacity:1;stroke-width:0.22935779816514}
		.st9 {fill:#ffffff;stroke:none;stroke-linecap:butt;stroke-width:7.2}
		.st10 {fill:#000000;font-family:Segoe UI;font-size:0.666664em}
		.st11 {fill:none;stroke:none;stroke-linecap:round;stroke-linejoin:round;stroke-width:0.75}
		.st12 {marker-end:url(#mrkr1-56);stroke:#9dbb61;stroke-dasharray:0.75,1.5;stroke-linecap:round;stroke-linejoin:round;stroke-width:0.75}
		.st13 {fill:#9dbb61;fill-opacity:1;stroke:#9dbb61;stroke-opacity:1;stroke-width:0.22935779816514}
		.st14 {fill:#9dbb61;font-family:Segoe UI;font-size:1.99999em}
		.st15 {fill:#fcebdd;stroke:#000000;stroke-linecap:round;stroke-linejoin:round;stroke-width:0.75}
		.st16 {fill:#000000;font-family:Segoe UI;font-size:1.00001em;font-weight:bold}
		.st17 {marker-end:url(#mrkr1-95);stroke:#9dbb61;stroke-dasharray:1.5,3;stroke-linecap:round;stroke-linejoin:round;stroke-width:1.5}
		.st18 {fill:#9dbb61;fill-opacity:1;stroke:#9dbb61;stroke-opacity:1;stroke-width:0.37313432835821}
		.st19 {fill:#a7fcd0;stroke:none;stroke-linecap:butt;stroke-width:4.78125}
		.st20 {fill:#75b600;stroke:none;stroke-linecap:butt;stroke-width:4.78125}
		.st21 {fill:#5c8e0d;stroke:none;stroke-linecap:butt;stroke-width:4.78125}
		.st22 {fill:#46600e;stroke:none;stroke-linecap:butt;stroke-width:4.78125}
		.st23 {fill:#ffffff;stroke:none;stroke-linecap:butt;stroke-width:4.78125}
		.st24 {fill:#ffffff;fill-opacity:0.5;stroke:none;stroke-linecap:butt;stroke-width:4.78125}
		.st25 {fill:#000000;font-family:Segoe UI;font-size:0.75em}
		.st26 {font-size:1em}
		.st27 {fill:#2e2e2e;stroke:none;stroke-linecap:butt;stroke-width:1.19531}
		.st28 {fill:#5ea4d3;stroke:none;stroke-linecap:butt;stroke-width:1.19531}
		.st29 {fill:#000000;stroke:none;stroke-linecap:butt;stroke-width:1.19531}
		.st30 {fill:#00acba;stroke:none;stroke-linecap:butt;stroke-width:19.125}
		.st31 {fill:#0181b0;stroke:none;stroke-linecap:butt;stroke-width:19.125}
		.st32 {fill:#f5d803;stroke:none;stroke-linecap:butt;stroke-width:19.125}
		.st33 {fill:#e7e3e6;stroke:none;stroke-linecap:butt;stroke-width:12.24}
		.st34 {fill:#656766;stroke:none;stroke-linecap:butt;stroke-width:12.24}
		.st35 {fill:#85bd57;stroke:none;stroke-linecap:butt;stroke-width:12.24}
		.st36 {fill:#53b1e2;stroke:none;stroke-linecap:butt;stroke-width:12.24}
		.st37 {fill:#ec6e62;stroke:none;stroke-linecap:butt;stroke-width:12.24}
		.st38 {fill:none;fill-rule:evenodd;font-size:12px;overflow:visible;stroke-linecap:square;stroke-miterlimit:3}
	]]>
	</style>

	<defs id="Markers">
		<g id="lend22">
			<path d="M 0 0 L 2.25 -1.125 L 4.5 0 L 2.25 1.125 L 0 0 " style="stroke-linecap:round;stroke-linejoin:round;fill:none"/>
		</g>
		<marker id="mrkr22-45" class="st8" v:arrowType="22" v:arrowSize="2" v:setback="19.14" refX="19.14" orient="auto"
				markerUnits="strokeWidth" overflow="visible">
			<use xlink:href="#lend22" transform="scale(4.36) "/>
		</marker>
		<g id="lend1">
			<path d="M 1 -1 L 0 0 L 1 1 " style="stroke-linecap:round;stroke-linejoin:round;fill:none"/>
		</g>
		<marker id="mrkr1-56" class="st13" v:arrowType="1" v:arrowSize="2" orient="auto" markerUnits="strokeWidth"
				overflow="visible">
			<use xlink:href="#lend1" transform="scale(-4.36,-4.36) "/>
		</marker>
		<marker id="mrkr1-95" class="st18" v:arrowType="1" v:arrowSize="2" orient="auto" markerUnits="strokeWidth"
				overflow="visible">
			<use xlink:href="#lend1" transform="scale(-2.68,-2.68) "/>
		</marker>
	</defs>
	<g v:mID="0" v:index="1" v:groupContext="foregroundPage">
		<title>Abstract</title>
		<v:pageProperties v:drawingScale="0.0393701" v:pageScale="0.0393701" v:drawingUnits="24" v:shadowOffsetX="8.50394"
				v:shadowOffsetY="-8.50394"/>
		<v:layer v:name="Connector" v:index="0"/>
		<g id="shape24-1" v:mID="24" v:groupContext="shape" transform="translate(18.375,-18.375)">
			<title>Sheet.24</title>
			<rect x="0" y="61.5532" width="221.102" height="233.858" class="st1"/>
		</g>
		<g id="group1-3" transform="translate(35.9498,-173.936)" v:mID="1" v:groupContext="group">
			<v:userDefs>
				<v:ud v:nameU="msvStructureType" v:prompt="" v:val="VT4(List)"/>
				<v:ud v:nameU="msvSDContainerResize" v:prompt="" v:val="VT0(2):26"/>
				<v:ud v:nameU="msvSDContainerNoRibbon" v:prompt="" v:val="VT0(1):5"/>
				<v:ud v:nameU="msvSDListAlignment" v:prompt="" v:val="VT0(0):26"/>
				<v:ud v:nameU="msvSDListDirection" v:prompt="" v:val="VT0(2):26"/>
				<v:ud v:nameU="msvSDListItemMaster1" v:prompt="" v:val="VT0(254):26"/>
				<v:ud v:nameU="msvSDListItemMaster2" v:prompt="" v:val="VT0(254):26"/>
				<v:ud v:nameU="msvSDListItemMaster3" v:prompt="" v:val="VT0(254):26"/>
				<v:ud v:nameU="msvSDListRequiredCategories" v:prompt="" v:val="VT4(Member;Separator)"/>
				<v:ud v:nameU="msvSDContainerMargin" v:prompt="" v:val="VT0(0.039370078740157):24"/>
				<v:ud v:nameU="msvSDListSpacing" v:prompt="" v:val="VT0(0):26"/>
				<v:ud v:nameU="TemplateParm" v:prompt="" v:val="VT0(0):5"/>
				<v:ud v:nameU="TemplateParmHgt" v:prompt="" v:val="VT0(0):1"/>
				<v:ud v:nameU="StereoType" v:prompt="" v:val="VT0(1):5"/>
				<v:ud v:nameU="StereoTypeHgt" v:prompt="" v:val="VT0(0.22227273084852):1"/>
				<v:ud v:nameU="TextOffset" v:prompt="" v:val="VT0(0.22227273084852):1"/>
				<v:ud v:nameU="WidthMin" v:prompt="" v:val="VT0(0):26"/>
				<v:ud v:nameU="EntityName" v:prompt="" v:val="VT4(InterfaceName)"/>
				<v:ud v:nameU="HdrHgt" v:prompt="" v:val="VT0(0.59593536783854):1"/>
				<v:ud v:nameU="BackGrnd" v:prompt="" v:val="VT5(#f2f2f2)"/>
				<v:ud v:nameU="BackGrndLine" v:prompt="" v:val="VT0(0):26"/>
				<v:ud v:nameU="Test" v:prompt="" v:val="VT0(0):5"/>
				<v:ud v:nameU="visVersion" v:prompt="" v:val="VT0(15):26"/>
				<v:ud v:nameU="WidthMin" v:prompt="" v:val="VT0(1.7210845841443):1"/>
				<v:ud v:nameU="EntityName" v:prompt="" v:val="VT4(IMyConfiguration)"/>
				<v:ud v:nameU="BackGrnd" v:prompt="" v:val="VT5(#ebf1df)"/>
				<v:ud v:nameU="BackGrndLine" v:prompt="" v:val="VT5(#c4d6a0)"/>
			</v:userDefs>
			<title>Interface</title>
			<desc>IMyConfiguration</desc>
			<g id="shape2-4" v:mID="2" v:groupContext="shape">
				<title>Sheet.2</title>
				<v:userDefs>
					<v:ud v:nameU="DOPS" v:prompt="" v:val="VT0(1):27"/>
					<v:ud v:nameU="HdrHgt" v:prompt="" v:val="VT0(0.59593536783854):1"/>
					<v:ud v:nameU="EmblOffset" v:prompt="" v:val="VT0(0):26"/>
					<v:ud v:nameU="Spacer" v:prompt="" v:val="VT0(0):26"/>
				</v:userDefs>
				<path d="M0 295.41 L184.25 295.41 L184.25 277.74 L0 277.74 L0 295.41 Z" class="st2"/>
			</g>
			<g id="shape3-6" v:mID="3" v:groupContext="shape" transform="translate(0,-17.6729)">
				<title>Sheet.3</title>
				<v:userDefs>
					<v:ud v:nameU="msvStructureType" v:prompt="" v:val="VT4(Heading)"/>
					<v:ud v:nameU="msvSDContainerHeadingEdge" v:prompt="" v:val="VT4(Bottom)"/>
					<v:ud v:nameU="StereoType" v:prompt="" v:val="VT0(1):5"/>
					<v:ud v:nameU="StereoTypeHgt" v:prompt="" v:val="VT0(0.22227273084852):1"/>
					<v:ud v:nameU="TemplateParm" v:prompt="" v:val="VT0(0):5"/>
					<v:ud v:nameU="TemplateParmHgt" v:prompt="" v:val="VT0(0):1"/>
					<v:ud v:nameU="EmblOffset" v:prompt="" v:val="VT0(0):26"/>
					<v:ud v:nameU="Spacer" v:prompt="" v:val="VT0(0):26"/>
					<v:ud v:nameU="UsableHgt" v:prompt="" v:val="VT0(0.59593536783854):1"/>
					<v:ud v:nameU="UmlRole" v:prompt="" v:val="VT4(InterfaceName)"/>
					<v:ud v:nameU="UmlRole" v:prompt="" v:val="VT4(IMyConfiguration)"/>
				</v:userDefs>
				<path d="M0 295.41 L184.25 295.41 L184.25 252.5 L0 252.5 L0 295.41 Z" class="st2"/>
			</g>
			<g id="shape4-8" v:mID="4" v:groupContext="shape" transform="translate(0,-44.5766)">
				<title>Sheet.4</title>
				<desc>&#60;&#60;Interface&#62;&#62;</desc>
				<v:userDefs>
					<v:ud v:nameU="TemplateParm" v:prompt="" v:val="VT0(0):5"/>
					<v:ud v:nameU="TemplateParmHgt" v:prompt="" v:val="VT0(0):1"/>
					<v:ud v:nameU="UmlRole" v:prompt="" v:val="VT4(&#60;&#60;Interface&#62;&#62;)"/>
				</v:userDefs>
				<v:textBlock v:margins="rect(4,4,0,4)" v:tabSpace="42.5197"/>
				<v:textRect cx="92.126" cy="287.41" width="184.26" height="16.0036"/>
				<text x="4" y="292.41" class="st3" v:langID="2057"><v:paragraph/><v:tabList/>&#60;&#60;Interface&#62;&#62;</text>			</g>
			<g id="shape5-10" v:mID="5" v:groupContext="shape" transform="translate(175.748,-60.5803)">
				<title>Sheet.5</title>
				<desc>parameter</desc>
				<v:userDefs>
					<v:ud v:nameU="TemplateParm" v:prompt="" v:val="VT0(0):5"/>
					<v:ud v:nameU="DOPS" v:prompt="" v:val="VT0(1):27"/>
					<v:ud v:nameU="Rounding" v:prompt="" v:val="VT0(0.11811023622047):24"/>
					<v:ud v:nameU="UmlRole" v:prompt="" v:val="VT4(parameter)"/>
				</v:userDefs>
				<v:textBlock v:margins="rect(2,4,2,4)" v:tabSpace="42.5197"/>
				<v:textRect cx="0" cy="295.411" width="0" height="0"/>
			</g>
			<g id="shape1-11" v:mID="1" v:groupContext="groupContent">
				<v:textBlock v:margins="rect(4,4,8.5,4)" v:tabSpace="42.5197"/>
				<v:textRect cx="92.126" cy="264.287" width="184.26" height="26.9037"/>
				<text x="4" y="265.64" class="st4" v:langID="2057"><v:paragraph/><v:tabList/>IMyConfiguration</text>			</g>
		</g>
		<g id="shape8-13" v:mID="8" v:groupContext="shape" transform="translate(38.7844,-176.771)">
			<title>Member.8</title>
			<desc>string ServerName { get; }</desc>
			<v:userDefs>
				<v:ud v:nameU="msvShapeCategories" v:prompt="" v:val="VT4(Member)"/>
				<v:ud v:nameU="MemberName" v:prompt="" v:val="VT4(-memberName)"/>
				<v:ud v:nameU="ContainerMargin" v:prompt="" v:val="VT0(0):26"/>
				<v:ud v:nameU="WidthMin" v:prompt="" v:val="VT0(0):26"/>
				<v:ud v:nameU="UserWidth" v:prompt="" v:val="VT0(1.8897637795276):24"/>
				<v:ud v:nameU="DarkerColor" v:prompt="" v:val="VT0(0):26"/>
				<v:ud v:nameU="DarkColor" v:prompt="" v:val="VT0(0):26"/>
				<v:ud v:nameU="BackFillColor" v:prompt="" v:val="VT5(1)"/>
				<v:ud v:nameU="BackLineColor" v:prompt="" v:val="VT5(0)"/>
				<v:ud v:nameU="IsInstance" v:prompt="" v:val="VT0(0):5"/>
				<v:ud v:nameU="visVersion" v:prompt="" v:val="VT0(15):26"/>
				<v:ud v:nameU="MemberName" v:prompt="" v:val="VT4(string ServerName { get; })"/>
				<v:ud v:nameU="ContainerMargin" v:prompt="" v:val="VT0(0.039370078740157):24"/>
				<v:ud v:nameU="WidthMin" v:prompt="" v:val="VT0(0):26"/>
				<v:ud v:nameU="DarkerColor" v:prompt="" v:val="VT5(#c05046)"/>
				<v:ud v:nameU="DarkColor" v:prompt="" v:val="VT5(#c4d6a0)"/>
				<v:ud v:nameU="BackFillColor" v:prompt="" v:val="VT5(#ebf1df)"/>
				<v:ud v:nameU="BackLineColor" v:prompt="" v:val="VT5(#c4d6a0)"/>
				<v:ud v:nameU="IsInstance" v:prompt="" v:val="VT0(1):5"/>
			</v:userDefs>
			<v:textBlock v:margins="rect(0,0,0,8.50394)" v:tabSpace="42.5197"/>
			<v:textRect cx="89.2913" cy="289.41" width="178.59" height="12.0036"/>
			<rect x="0" y="283.408" width="178.583" height="12.0036" class="st5"/>
			<rect x="0" y="283.408" width="178.583" height="12.0036" class="st6"/>
			<text x="8.5" y="292.41" class="st3" v:langID="2057"><v:paragraph/><v:tabList/>string ServerName { get; }</text>		</g>
		<g id="group9-17" transform="translate(35.9498,-25.1915)" v:mID="9" v:groupContext="group">
			<v:userDefs>
				<v:ud v:nameU="msvStructureType" v:prompt="" v:val="VT4(List)"/>
				<v:ud v:nameU="msvSDContainerResize" v:prompt="" v:val="VT0(2):26"/>
				<v:ud v:nameU="msvSDContainerNoRibbon" v:prompt="" v:val="VT0(1):5"/>
				<v:ud v:nameU="msvSDListAlignment" v:prompt="" v:val="VT0(0):26"/>
				<v:ud v:nameU="msvSDListDirection" v:prompt="" v:val="VT0(2):26"/>
				<v:ud v:nameU="msvSDListItemMaster1" v:prompt="" v:val="VT0(254):26"/>
				<v:ud v:nameU="msvSDListItemMaster2" v:prompt="" v:val="VT0(254):26"/>
				<v:ud v:nameU="msvSDListItemMaster3" v:prompt="" v:val="VT0(254):26"/>
				<v:ud v:nameU="msvSDListRequiredCategories" v:prompt="" v:val="VT4(Member;Separator)"/>
				<v:ud v:nameU="msvSDContainerMargin" v:prompt="" v:val="VT0(0.039370078740157):24"/>
				<v:ud v:nameU="msvSDListSpacing" v:prompt="" v:val="VT0(0):26"/>
				<v:ud v:nameU="TemplateParm" v:prompt="" v:val="VT0(0):5"/>
				<v:ud v:nameU="TemplateParmHgt" v:prompt="" v:val="VT0(0):1"/>
				<v:ud v:nameU="StereoType" v:prompt="" v:val="VT0(1):5"/>
				<v:ud v:nameU="StereoTypeHgt" v:prompt="" v:val="VT0(0.22227273084852):1"/>
				<v:ud v:nameU="TextOffset" v:prompt="" v:val="VT0(0.22227273084852):1"/>
				<v:ud v:nameU="WidthMin" v:prompt="" v:val="VT0(0):26"/>
				<v:ud v:nameU="EntityName" v:prompt="" v:val="VT4(InterfaceName)"/>
				<v:ud v:nameU="HdrHgt" v:prompt="" v:val="VT0(0.59593536783854):1"/>
				<v:ud v:nameU="BackGrnd" v:prompt="" v:val="VT5(#f2f2f2)"/>
				<v:ud v:nameU="BackGrndLine" v:prompt="" v:val="VT0(0):26"/>
				<v:ud v:nameU="Test" v:prompt="" v:val="VT0(0):5"/>
				<v:ud v:nameU="visVersion" v:prompt="" v:val="VT0(15):26"/>
				<v:ud v:nameU="StereoTypeHgt" v:prompt="" v:val="VT0(0.37366263699002):1"/>
				<v:ud v:nameU="TextOffset" v:prompt="" v:val="VT0(0.37366263699002):1"/>
				<v:ud v:nameU="WidthMin" v:prompt="" v:val="VT0(2.140743245033):1"/>
				<v:ud v:nameU="EntityName" v:prompt="" v:val="VT4(IAccount)"/>
				<v:ud v:nameU="HdrHgt" v:prompt="" v:val="VT0(0.74732527398003):1"/>
				<v:ud v:nameU="BackGrnd" v:prompt="" v:val="VT5(#ebf1df)"/>
				<v:ud v:nameU="BackGrndLine" v:prompt="" v:val="VT5(#c4d6a0)"/>
			</v:userDefs>
			<title>Interface.9</title>
			<desc>IAccount</desc>
			<g id="shape10-18" v:mID="10" v:groupContext="shape">
				<title>Sheet.10</title>
				<v:userDefs>
					<v:ud v:nameU="DOPS" v:prompt="" v:val="VT0(1):27"/>
					<v:ud v:nameU="HdrHgt" v:prompt="" v:val="VT0(0.59593536783854):1"/>
					<v:ud v:nameU="EmblOffset" v:prompt="" v:val="VT0(0):26"/>
					<v:ud v:nameU="Spacer" v:prompt="" v:val="VT0(0):26"/>
					<v:ud v:nameU="HdrHgt" v:prompt="" v:val="VT0(0.74732527398003):1"/>
				</v:userDefs>
				<path d="M0 295.41 L184.25 295.41 L184.25 253.73 L0 253.73 L0 295.41 Z" class="st2"/>
			</g>
			<g id="shape11-20" v:mID="11" v:groupContext="shape" transform="translate(0,-41.6802)">
				<title>Sheet.11</title>
				<v:userDefs>
					<v:ud v:nameU="msvStructureType" v:prompt="" v:val="VT4(Heading)"/>
					<v:ud v:nameU="msvSDContainerHeadingEdge" v:prompt="" v:val="VT4(Bottom)"/>
					<v:ud v:nameU="StereoType" v:prompt="" v:val="VT0(1):5"/>
					<v:ud v:nameU="StereoTypeHgt" v:prompt="" v:val="VT0(0.22227273084852):1"/>
					<v:ud v:nameU="TemplateParm" v:prompt="" v:val="VT0(0):5"/>
					<v:ud v:nameU="TemplateParmHgt" v:prompt="" v:val="VT0(0):1"/>
					<v:ud v:nameU="EmblOffset" v:prompt="" v:val="VT0(0):26"/>
					<v:ud v:nameU="Spacer" v:prompt="" v:val="VT0(0):26"/>
					<v:ud v:nameU="UsableHgt" v:prompt="" v:val="VT0(0.59593536783854):1"/>
					<v:ud v:nameU="UmlRole" v:prompt="" v:val="VT4(InterfaceName)"/>
					<v:ud v:nameU="StereoTypeHgt" v:prompt="" v:val="VT0(0.37366263699002):1"/>
					<v:ud v:nameU="UsableHgt" v:prompt="" v:val="VT0(0.74732527398003):1"/>
					<v:ud v:nameU="UmlRole" v:prompt="" v:val="VT4(IAccount)"/>
				</v:userDefs>
				<path d="M0 295.41 L184.25 295.41 L184.25 241.6 L0 241.6 L0 295.41 Z" class="st2"/>
			</g>
			<g id="shape12-22" v:mID="12" v:groupContext="shape" transform="translate(0,-68.5839)">
				<title>Sheet.12</title>
				<desc>&#60;&#60;Interface&#62;&#62;</desc>
				<v:userDefs>
					<v:ud v:nameU="TemplateParm" v:prompt="" v:val="VT0(0):5"/>
					<v:ud v:nameU="TemplateParmHgt" v:prompt="" v:val="VT0(0):1"/>
					<v:ud v:nameU="UmlRole" v:prompt="" v:val="VT4(&#60;&#60;Interface&#62;&#62;)"/>
				</v:userDefs>
				<v:textBlock v:margins="rect(4,4,8.5,4)" v:tabSpace="42.5197"/>
				<v:textRect cx="92.126" cy="281.96" width="184.26" height="26.9037"/>
				<text x="4" y="283.31" class="st4" v:langID="2057"><v:paragraph/><v:tabList/>&#60;&#60;Interface&#62;&#62;</text>			</g>
			<g id="shape13-24" v:mID="13" v:groupContext="shape" transform="translate(175.748,-95.4876)">
				<title>Sheet.13</title>
				<desc>parameter</desc>
				<v:userDefs>
					<v:ud v:nameU="TemplateParm" v:prompt="" v:val="VT0(0):5"/>
					<v:ud v:nameU="DOPS" v:prompt="" v:val="VT0(1):27"/>
					<v:ud v:nameU="Rounding" v:prompt="" v:val="VT0(0.11811023622047):24"/>
					<v:ud v:nameU="UmlRole" v:prompt="" v:val="VT4(parameter)"/>
				</v:userDefs>
				<v:textBlock v:margins="rect(4,4,8.5,4)" v:tabSpace="42.5197"/>
				<v:textRect cx="0" cy="295.411" width="0" height="0"/>
			</g>
			<g id="shape9-25" v:mID="9" v:groupContext="groupContent">
				<v:textBlock v:margins="rect(4,4,8.5,4)" v:tabSpace="42.5197"/>
				<v:textRect cx="92.126" cy="240.279" width="184.26" height="26.9037"/>
				<text x="4" y="241.63" class="st4" v:langID="2057"><v:paragraph/><v:tabList/>IAccount</text>			</g>
		</g>
		<g id="shape16-27" v:mID="16" v:groupContext="shape" transform="translate(38.7844,-52.0334)">
			<title>Member.16</title>
			<desc>+ string Username { get; }</desc>
			<v:userDefs>
				<v:ud v:nameU="msvShapeCategories" v:prompt="" v:val="VT4(Member)"/>
				<v:ud v:nameU="MemberName" v:prompt="" v:val="VT4(-memberName)"/>
				<v:ud v:nameU="ContainerMargin" v:prompt="" v:val="VT0(0):26"/>
				<v:ud v:nameU="WidthMin" v:prompt="" v:val="VT0(0):26"/>
				<v:ud v:nameU="UserWidth" v:prompt="" v:val="VT0(1.8897637795276):24"/>
				<v:ud v:nameU="DarkerColor" v:prompt="" v:val="VT0(0):26"/>
				<v:ud v:nameU="DarkColor" v:prompt="" v:val="VT0(0):26"/>
				<v:ud v:nameU="BackFillColor" v:prompt="" v:val="VT5(1)"/>
				<v:ud v:nameU="BackLineColor" v:prompt="" v:val="VT5(0)"/>
				<v:ud v:nameU="IsInstance" v:prompt="" v:val="VT0(0):5"/>
				<v:ud v:nameU="visVersion" v:prompt="" v:val="VT0(15):26"/>
				<v:ud v:nameU="MemberName" v:prompt="" v:val="VT4(+ string Username { get; })"/>
				<v:ud v:nameU="ContainerMargin" v:prompt="" v:val="VT0(0.039370078740157):24"/>
				<v:ud v:nameU="WidthMin" v:prompt="" v:val="VT0(0):26"/>
				<v:ud v:nameU="DarkerColor" v:prompt="" v:val="VT5(#c05046)"/>
				<v:ud v:nameU="DarkColor" v:prompt="" v:val="VT5(#c4d6a0)"/>
				<v:ud v:nameU="BackFillColor" v:prompt="" v:val="VT5(#ebf1df)"/>
				<v:ud v:nameU="BackLineColor" v:prompt="" v:val="VT5(#c4d6a0)"/>
				<v:ud v:nameU="IsInstance" v:prompt="" v:val="VT0(1):5"/>
			</v:userDefs>
			<v:textBlock v:margins="rect(0,0,0,8.50394)" v:tabSpace="42.5197"/>
			<v:textRect cx="89.2913" cy="289.41" width="178.59" height="12.0036"/>
			<rect x="0" y="283.408" width="178.583" height="12.0036" class="st5"/>
			<rect x="0" y="283.408" width="178.583" height="12.0036" class="st6"/>
			<text x="8.5" y="292.41" class="st3" v:langID="2057"><v:paragraph/><v:tabList/>+ string Username { get; }</text>		</g>
		<g id="shape17-31" v:mID="17" v:groupContext="shape" transform="translate(38.7844,-40.0297)">
			<title>Member</title>
			<desc>+ string Password { get; }</desc>
			<v:userDefs>
				<v:ud v:nameU="msvShapeCategories" v:prompt="" v:val="VT4(Member)"/>
				<v:ud v:nameU="MemberName" v:prompt="" v:val="VT4(-memberName)"/>
				<v:ud v:nameU="ContainerMargin" v:prompt="" v:val="VT0(0):26"/>
				<v:ud v:nameU="WidthMin" v:prompt="" v:val="VT0(0):26"/>
				<v:ud v:nameU="UserWidth" v:prompt="" v:val="VT0(1.8897637795276):24"/>
				<v:ud v:nameU="DarkerColor" v:prompt="" v:val="VT0(0):26"/>
				<v:ud v:nameU="DarkColor" v:prompt="" v:val="VT0(0):26"/>
				<v:ud v:nameU="BackFillColor" v:prompt="" v:val="VT5(1)"/>
				<v:ud v:nameU="BackLineColor" v:prompt="" v:val="VT5(0)"/>
				<v:ud v:nameU="IsInstance" v:prompt="" v:val="VT0(0):5"/>
				<v:ud v:nameU="visVersion" v:prompt="" v:val="VT0(15):26"/>
				<v:ud v:nameU="MemberName" v:prompt="" v:val="VT4(+ string Password { get; })"/>
				<v:ud v:nameU="ContainerMargin" v:prompt="" v:val="VT0(0.039370078740157):24"/>
				<v:ud v:nameU="WidthMin" v:prompt="" v:val="VT0(0):26"/>
				<v:ud v:nameU="DarkerColor" v:prompt="" v:val="VT5(#c05046)"/>
				<v:ud v:nameU="DarkColor" v:prompt="" v:val="VT5(#c4d6a0)"/>
				<v:ud v:nameU="BackFillColor" v:prompt="" v:val="VT5(#ebf1df)"/>
				<v:ud v:nameU="BackLineColor" v:prompt="" v:val="VT5(#c4d6a0)"/>
				<v:ud v:nameU="IsInstance" v:prompt="" v:val="VT0(1):5"/>
			</v:userDefs>
			<v:textBlock v:margins="rect(0,0,0,8.50394)" v:tabSpace="42.5197"/>
			<v:textRect cx="89.2913" cy="289.41" width="178.59" height="12.0036"/>
			<rect x="0" y="283.408" width="178.583" height="12.0036" class="st5"/>
			<rect x="0" y="283.408" width="178.583" height="12.0036" class="st6"/>
			<text x="8.5" y="292.41" class="st3" v:langID="2057"><v:paragraph/><v:tabList/>+ string Password { get; }</text>		</g>
		<g id="shape18-35" v:mID="18" v:groupContext="shape" transform="translate(38.7844,-28.0261)">
			<title>Member.18</title>
			<desc>+ int MaxInvalidAttempts { get; }</desc>
			<v:userDefs>
				<v:ud v:nameU="msvShapeCategories" v:prompt="" v:val="VT4(Member)"/>
				<v:ud v:nameU="MemberName" v:prompt="" v:val="VT4(-memberName)"/>
				<v:ud v:nameU="ContainerMargin" v:prompt="" v:val="VT0(0):26"/>
				<v:ud v:nameU="WidthMin" v:prompt="" v:val="VT0(0):26"/>
				<v:ud v:nameU="UserWidth" v:prompt="" v:val="VT0(1.8897637795276):24"/>
				<v:ud v:nameU="DarkerColor" v:prompt="" v:val="VT0(0):26"/>
				<v:ud v:nameU="DarkColor" v:prompt="" v:val="VT0(0):26"/>
				<v:ud v:nameU="BackFillColor" v:prompt="" v:val="VT5(1)"/>
				<v:ud v:nameU="BackLineColor" v:prompt="" v:val="VT5(0)"/>
				<v:ud v:nameU="IsInstance" v:prompt="" v:val="VT0(0):5"/>
				<v:ud v:nameU="visVersion" v:prompt="" v:val="VT0(15):26"/>
				<v:ud v:nameU="MemberName" v:prompt="" v:val="VT4(+ int MaxInvalidAttempts { get; })"/>
				<v:ud v:nameU="ContainerMargin" v:prompt="" v:val="VT0(0.039370078740157):24"/>
				<v:ud v:nameU="WidthMin" v:prompt="" v:val="VT0(0):26"/>
				<v:ud v:nameU="DarkerColor" v:prompt="" v:val="VT5(#c05046)"/>
				<v:ud v:nameU="DarkColor" v:prompt="" v:val="VT5(#c4d6a0)"/>
				<v:ud v:nameU="BackFillColor" v:prompt="" v:val="VT5(#ebf1df)"/>
				<v:ud v:nameU="BackLineColor" v:prompt="" v:val="VT5(#c4d6a0)"/>
				<v:ud v:nameU="IsInstance" v:prompt="" v:val="VT0(1):5"/>
			</v:userDefs>
			<v:textBlock v:margins="rect(0,0,0,8.50394)" v:tabSpace="42.5197"/>
			<v:textRect cx="89.2913" cy="289.41" width="178.59" height="12.0036"/>
			<rect x="0" y="283.408" width="178.583" height="12.0036" class="st5"/>
			<rect x="0" y="283.408" width="178.583" height="12.0036" class="st6"/>
			<text x="8.5" y="292.41" class="st3" v:langID="2057"><v:paragraph/><v:tabList/>+ int MaxInvalidAttempts { get; }</text>		</g>
		<g id="group19-39" transform="translate(120.989,-173.936)" v:mID="19" v:groupContext="group" v:layerMember="0">
			<v:userDefs>
				<v:ud v:nameU="visVersion" v:prompt="" v:val="VT0(15):26"/>
				<v:ud v:nameU="RelationshipName" v:prompt="" v:val="VT4()"/>
				<v:ud v:nameU="ShowMulti" v:prompt="" v:val="VT0(0):26"/>
				<v:ud v:nameU="Identifying" v:prompt="" v:val="VT0(1):26"/>
				<v:ud v:nameU="DXBegin" v:prompt="" v:val="VT0(0):1"/>
				<v:ud v:nameU="DYBegin" v:prompt="" v:val="VT0(-0.03011811023622):1"/>
				<v:ud v:nameU="DXEnd" v:prompt="" v:val="VT0(0.030118110236221):1"/>
				<v:ud v:nameU="DYEnd" v:prompt="" v:val="VT0(0):1"/>
				<v:ud v:nameU="BeginAngle" v:prompt="" v:val="VT0(-1.5707963267949):32"/>
				<v:ud v:nameU="EndAngle" v:prompt="" v:val="VT0(0):32"/>
				<v:ud v:nameU="RelationshipName" v:prompt="" v:val="VT4(AdminCredentials)"/>
				<v:ud v:nameU="DYBegin" v:prompt="" v:val="VT0(-0.011095285274473):24"/>
				<v:ud v:nameU="DXEnd" v:prompt="" v:val="VT0(0):1"/>
				<v:ud v:nameU="DYEnd" v:prompt="" v:val="VT0(-0.011095285274475):24"/>
				<v:ud v:nameU="EndAngle" v:prompt="" v:val="VT0(-1.5707963267949):32"/>
			</v:userDefs>
			<title>Aggregation</title>
			<desc>AdminCredentials</desc>
			<g id="shape19-40" v:mID="19" v:groupContext="groupContent" v:layerMember="0">
				<v:textBlock v:margins="rect(4,4,4,4)" v:tabSpace="42.5197"/>
				<v:textRect cx="7.08661" cy="322.04" width="72.82" height="17.6036"/>
				<path d="M7.09 309.77 L7.09 310.13 L7.09 348.67" class="st7"/>
				<rect v:rectContext="textBkgnd" x="-24.2214" y="317.24" width="62.6163" height="9.59985" class="st9"/>
				<text x="-24.22" y="324.44" class="st10" v:langID="2057"><v:paragraph v:horizAlign="1"/><v:tabList/>AdminCredentials</text>			</g>
		</g>
		<g id="shape25-48" v:mID="25" v:groupContext="shape" transform="translate(52.9262,-257.036)">
			<title>Sheet.25</title>
			<desc>Configuration Model</desc>
			<v:textBlock v:margins="rect(4,4,4,4)" v:tabSpace="42.5197"/>
			<v:textRect cx="76" cy="285.411" width="152" height="20"/>
			<rect x="0" y="275.411" width="152" height="20" class="st11"/>
			<text x="20.91" y="289.01" class="st4" v:langID="2057"><v:paragraph v:horizAlign="1"/><v:tabList/>Configuration Model</text>		</g>
		<g id="shape27-51" v:mID="27" v:groupContext="shape" v:layerMember="0" transform="translate(394.795,-149.477)">
			<title>Dynamic connector</title>
			<path d="M0 295.41 L51.16 295.41 L51.16 257.07" class="st12"/>
		</g>
		<g id="shape32-57" v:mID="32" v:groupContext="shape" transform="translate(643.139,-75.5444)">
			<title>Sheet.32</title>
			<desc>...</desc>
			<v:textBlock v:margins="rect(4,4,4,4)" v:tabSpace="42.5197"/>
			<v:textRect cx="14.6081" cy="285.411" width="29.22" height="20"/>
			<rect x="0" y="275.411" width="29.2163" height="20" class="st11"/>
			<text x="6.8" y="292.61" class="st14" v:langID="2057"><v:paragraph v:horizAlign="1"/><v:tabList/>...</text>		</g>
		<g id="shape33-60" v:mID="33" v:groupContext="shape" v:layerMember="0" transform="translate(394.795,-149.477)">
			<title>Dynamic connector.33</title>
			<path d="M0 295.41 L156.95 295.41 L156.95 250.87" class="st12"/>
		</g>
		<g id="shape34-65" v:mID="34" v:groupContext="shape" v:layerMember="0" transform="translate(394.795,-149.477)">
			<title>Dynamic connector.34</title>
			<path d="M0 295.41 L258.97 295.41 L258.97 250.87" class="st12"/>
		</g>
		<g id="shape35-70" v:mID="35" v:groupContext="shape" v:layerMember="0" transform="translate(394.795,-149.477)">
			<title>Dynamic connector.35</title>
			<path d="M0 295.41 L72.68 295.41 L72.68 344.29" class="st12"/>
		</g>
		<g id="shape36-75" v:mID="36" v:groupContext="shape" v:layerMember="0" transform="translate(394.795,-149.477)">
			<title>Dynamic connector.36</title>
			<path d="M0 295.41 L156.95 295.41 L156.95 329.65" class="st12"/>
		</g>
		<g id="group37-80" transform="translate(296.862,-131.477)" v:mID="37" v:groupContext="group">
			<v:userDefs>
				<v:ud v:nameU="visDescription" v:val="VT4(Use to add a system component to your system diagram.)"/>
				<v:ud v:nameU="visVersion" v:val="VT0(15):26"/>
			</v:userDefs>
			<title>Component</title>
			<g id="shape38-81" v:mID="38" v:groupContext="shape" transform="translate(12.6,0)">
				<title>Sheet.38</title>
				<rect x="0" y="259.411" width="85.3328" height="36" class="st15"/>
			</g>
			<g id="shape39-83" v:mID="39" v:groupContext="shape" transform="translate(0,-22.5)">
				<title>Sheet.39</title>
				<rect x="0" y="286.411" width="25.2" height="9" class="st15"/>
			</g>
			<g id="shape40-85" v:mID="40" v:groupContext="shape" transform="translate(0,-4.5)">
				<title>Sheet.40</title>
				<rect x="0" y="286.411" width="25.2" height="9" class="st15"/>
			</g>
			<g id="shape41-87" v:mID="41" v:groupContext="shape" transform="translate(25.2,0)">
				<title>Sheet.41</title>
				<desc>Config.Net</desc>
				<v:textBlock v:margins="rect(4,4,4,4)" v:tabSpace="42.5197"/>
				<v:textRect cx="36.3664" cy="277.411" width="72.74" height="36"/>
				<rect x="0" y="259.411" width="72.7328" height="36" class="st15"/>
				<text x="5.66" y="281.01" class="st16" v:langID="2057"><v:paragraph v:horizAlign="1"/><v:tabList/>Config.Net</text>			</g>
		</g>
		<g id="shape42-90" v:mID="42" v:groupContext="shape" v:layerMember="0" transform="translate(239.477,-141.961)">
			<title>Dynamic connector.42</title>
			<path d="M0 288.32 L69.98 288.32" class="st17"/>
		</g>
		<g id="shape43-96" v:mID="43" v:groupContext="shape" v:layerMember="0" transform="translate(389.169,-149.477)">
			<title>Dynamic connector.43</title>
			<path d="M0 295.41 L266.46 295.41 L266.46 328.01" class="st12"/>
		</g>
		<g id="group142-101" transform="translate(411.203,-165.385)" v:mID="142" v:groupContext="group">
			<title>Sheet.142</title>
			<g id="group44-102" transform="translate(10.8925,-22.1799)" v:mID="44" v:groupContext="group">
				<title>Sheet.44</title>
				<g id="group45-103" v:mID="45" v:groupContext="group">
					<title>Sheet.45</title>
					<g id="shape46-104" v:mID="46" v:groupContext="shape">
						<title>Sheet.46</title>
						<ellipse cx="27.6285" cy="267.783" rx="27.6285" ry="27.6285" class="st19"/>
					</g>
					<g id="shape47-106" v:mID="47" v:groupContext="shape" transform="translate(11.958,-8.59073)">
						<title>Sheet.47</title>
						<path d="M4.45 293.3 C1.77 291.18 0 281.81 0 281.81 C0 281.81 9.54 281.51 12.22 283.63 C14.89 285.78 15.33
									 289.67 13.17 292.35 C11.01 294.98 7.12 295.41 4.45 293.3 Z" class="st20"/>
					</g>
					<g id="shape48-108" v:mID="48" v:groupContext="shape" transform="translate(10.7924,-6.25958)">
						<title>Sheet.48</title>
						<path d="M12.35 283.54 C9.63 281.38 0 281.68 0 281.68 C0 281.68 1.81 291.09 4.53 293.25 C7.25 295.41 11.18
									 294.98 13.34 292.26 C15.5 289.63 15.07 285.7 12.35 283.54 Z" class="st20"/>
					</g>
					<g id="shape49-110" v:mID="49" v:groupContext="shape" transform="translate(12.3896,-8.59073)">
						<title>Sheet.49</title>
						<path d="M12.69 289.84 C10.58 292.52 6.65 292.95 3.97 290.79 C2.55 289.63 1.04 286.56 0 283.93 C0.69 286.82
									 2.12 291.79 3.97 293.3 C6.65 295.41 10.53 294.98 12.69 292.35 C13.9 290.84 14.29 288.98 13.9
									 287.21 C13.73 288.12 13.34 289.02 12.69 289.84 Z" class="st21"/>
					</g>
					<g id="shape50-112" v:mID="50" v:groupContext="shape" transform="translate(11.6126,-8.76341)">
						<title>Sheet.50</title>
						<path d="M8.63 295.41 C7.17 295.41 5.74 294.89 4.58 293.94 C1.86 291.74 0.13 282.5 0.04 282.12 C0 281.99
									 0.04 281.86 0.13 281.77 C0.22 281.68 0.3 281.6 0.43 281.6 C0.43 281.6 0.91 281.6 1.68 281.6
									 C4.92 281.6 10.62 281.86 12.69 283.54 C15.5 285.83 15.93 290.06 13.73 292.91 C12.48 294.5 10.62
									 295.41 8.63 295.41 ZM0.99 282.46 C1.38 284.4 2.98 291.53 5.14 293.25 C6.13 294.07 7.38 294.5
									 8.68 294.5 C10.4 294.5 12 293.73 13.08 292.35 C15.02 289.84 14.63 286.22 12.17 284.19 C10.84
									 283.11 6.95 282.46 1.73 282.46 C1.42 282.46 1.17 282.46 0.99 282.46 Z" class="st22"/>
					</g>
					<g id="shape51-114" v:mID="51" v:groupContext="shape" transform="translate(18.5629,-10.9219)">
						<title>Sheet.51</title>
						<path d="M11.66 295.41 C5.01 295.41 0.39 290.36 0.17 290.1 C0 289.93 0.04 289.67 0.22 289.5 C0.39 289.32
									 0.65 289.37 0.82 289.54 C0.86 289.58 5.35 294.59 11.61 294.63 C12.3 294.63 12.99 294.59 13.73
									 294.46 C13.94 294.42 14.2 294.59 14.25 294.81 C14.29 295.02 14.12 295.28 13.9 295.33 C13.12
									 295.41 12.39 295.41 11.66 295.41 Z" class="st22"/>
					</g>
					<g id="shape52-116" v:mID="52" v:groupContext="shape" transform="translate(13.5552,-32.4635)">
						<title>Sheet.52</title>
						<path d="M4.36 282.81 C7.43 281.34 16.66 283.76 16.66 283.76 C16.66 283.76 12.82 292.48 9.76 293.94 C6.69
									 295.41 2.98 294.12 1.51 291.05 C0 287.99 1.3 284.32 4.36 282.81 Z" class="st20"/>
					</g>
					<g id="shape53-118" v:mID="53" v:groupContext="shape" transform="translate(13.3825,-30.3482)">
						<title>Sheet.53</title>
						<path d="M4.4 282.59 C1.3 284.1 0 287.86 1.47 290.96 C2.98 294.12 6.73 295.41 9.84 293.94 C12.95 292.43 16.84
									 283.58 16.84 283.58 C16.84 283.58 7.51 281.08 4.4 282.59 Z" class="st20"/>
					</g>
					<g id="shape54-120" v:mID="54" v:groupContext="shape" transform="translate(14.2891,-32.4203)">
						<title>Sheet.54</title>
						<path d="M8.98 291.57 C5.91 293.04 2.2 291.74 0.73 288.68 C0.52 288.2 0.35 287.68 0.26 287.17 C0 288.42 0.13
									 289.8 0.73 291.05 C2.2 294.12 5.91 295.41 8.98 293.94 C11.35 292.82 14.16 287.38 15.37 284.96
									 C13.38 287.55 10.75 290.75 8.98 291.57 Z" class="st21"/>
					</g>
					<g id="shape55-122" v:mID="55" v:groupContext="shape" transform="translate(34.881,-13.5121)">
						<title>Sheet.55</title>
						<path d="M6.48 278.58 C3.02 278.49 0.17 281.21 0.09 284.62 C0 288.03 6.09 295.41 6.09 295.41 C6.09 295.41
									 12.52 288.33 12.61 284.92 C12.69 281.47 9.93 278.66 6.48 278.58 Z" class="st20"/>
					</g>
					<g id="shape56-124" v:mID="56" v:groupContext="shape" transform="translate(12.8645,-32.9383)">
						<title>Sheet.56</title>
						<path d="M7.64 295.41 C5.09 295.41 2.72 293.94 1.6 291.7 C0 288.46 1.42 284.53 4.75 282.98 C5.48 282.63 6.52
									 282.46 7.9 282.46 C11.87 282.46 17.22 283.84 17.44 283.89 C17.57 283.93 17.66 284.01 17.74 284.1
									 C17.79 284.23 17.79 284.36 17.74 284.45 C17.57 284.79 13.77 293.21 10.53 294.72 C9.63 295.2
									 8.63 295.41 7.64 295.41 ZM7.9 283.32 C6.65 283.32 5.7 283.45 5.09 283.76 C2.2 285.09 0.99 288.5
									 2.37 291.35 C3.32 293.3 5.4 294.59 7.64 294.59 C8.5 294.59 9.37 294.42 10.14 294.03 C12.69 292.82
									 15.89 286.43 16.71 284.62 C15.28 284.27 11.09 283.32 7.9 283.32 Z" class="st22"/>
					</g>
					<g id="shape57-126" v:mID="57" v:groupContext="shape" transform="translate(11.1809,-29.8733)">
						<title>Sheet.57</title>
						<path d="M0.47 295.41 C0.43 295.41 0.39 295.41 0.35 295.41 C0.13 295.37 0 295.11 0.04 294.89 C2.2 287.21
									 10.32 284.88 10.66 284.79 C10.88 284.75 11.14 284.88 11.18 285.09 C11.22 285.31 11.09 285.57
									 10.88 285.61 C10.79 285.66 2.89 287.94 0.86 295.11 C0.86 295.28 0.69 295.41 0.47 295.41 Z"
								class="st22"/>
					</g>
					<g id="shape58-128" v:mID="58" v:groupContext="shape" transform="translate(35.6148,-16.0159)">
						<title>Sheet.58</title>
						<path d="M12.48 284.88 C12.39 288.29 6.04 295.41 6.04 295.41 C6.04 295.41 0 288.03 0.09 284.62 C0.17 281.21
									 2.98 278.49 6.43 278.58 C9.84 278.62 12.52 281.47 12.48 284.88 Z" class="st20"/>
					</g>
					<g id="shape59-130" v:mID="59" v:groupContext="shape" transform="translate(35.6148,-16.0159)">
						<title>Sheet.59</title>
						<path d="M6.04 293.17 C6.04 293.17 1.12 287.12 0.22 283.45 C0.13 283.84 0.09 284.19 0.09 284.62 C0 288.03
									 6.04 295.41 6.04 295.41 C6.04 295.41 12.39 288.29 12.48 284.88 C12.48 284.4 12.43 283.93 12.35
									 283.5 C11.44 287.12 6.04 293.17 6.04 293.17 Z" class="st21"/>
					</g>
					<g id="shape60-132" v:mID="60" v:groupContext="shape" transform="translate(35.3126,-15.6705)">
						<title>Sheet.60</title>
						<path d="M6.52 295.41 C6.52 295.41 6.52 295.41 6.52 295.41 C6.39 295.41 6.26 295.37 6.17 295.24 C5.96 294.94
									 0 287.73 0.09 284.19 C0.17 280.6 3.15 277.71 6.78 277.71 L6.95 277.71 C10.62 277.8 13.56 280.82
									 13.47 284.49 C13.38 288.03 7.12 294.98 6.86 295.28 C6.78 295.37 6.65 295.41 6.52 295.41 ZM6.78
									 278.58 C3.63 278.58 1.04 281.08 0.95 284.19 C0.91 286.99 5.31 292.73 6.56 294.29 C7.86 292.78
									 12.56 287.21 12.61 284.45 C12.69 281.25 10.14 278.62 6.91 278.58 L6.78 278.58 Z" class="st22"/>
					</g>
					<g id="shape61-134" v:mID="61" v:groupContext="shape" transform="translate(37.2984,-24.7361)">
						<title>Sheet.61</title>
						<path d="M4.53 295.41 C4.49 295.41 4.49 295.41 4.45 295.41 C4.23 295.37 4.06 295.15 4.1 294.89 C4.1 294.81
									 5.66 286.73 0.17 281.64 C0 281.47 0 281.21 0.13 281.04 C0.3 280.86 0.56 280.86 0.73 280.99 C6.6
									 286.39 5.01 294.68 4.92 295.02 C4.92 295.28 4.75 295.41 4.53 295.41 Z" class="st22"/>
					</g>
					<g id="shape62-136" v:mID="62" v:groupContext="shape" transform="translate(37.5575,-8.33171)">
						<title>Sheet.62</title>
						<path d="M1.73 295.41 C0.78 295.41 0 294.63 0 293.68 C0 292.73 0.78 291.96 1.73 291.96 C2.68 291.96 3.45
									 292.73 3.45 293.68 C3.45 294.63 2.68 295.41 1.73 295.41 ZM1.73 292.78 C1.21 292.78 0.82 293.21
									 0.82 293.68 C0.82 294.2 1.25 294.59 1.73 294.59 C2.24 294.59 2.63 294.16 2.63 293.68 C2.63 293.17
									 2.24 292.78 1.73 292.78 Z" class="st23"/>
					</g>
					<g id="shape63-138" v:mID="63" v:groupContext="shape" transform="translate(22.0164,-26.0312)">
						<title>Sheet.63</title>
						<path d="M1.68 295.41 C0.73 295.41 0 294.63 0 293.68 C0 292.73 0.78 291.96 1.68 291.96 C2.63 291.96 3.37
									 292.73 3.37 293.68 C3.37 294.63 2.63 295.41 1.68 295.41 ZM1.68 292.78 C1.17 292.78 0.78 293.21
									 0.78 293.68 C0.78 294.2 1.17 294.59 1.68 294.59 C2.2 294.59 2.59 294.16 2.59 293.68 C2.59 293.17
									 2.2 292.78 1.68 292.78 Z" class="st23"/>
					</g>
					<g id="shape64-140" v:mID="64" v:groupContext="shape" transform="translate(3.88525,-23.441)">
						<title>Sheet.64</title>
						<path d="M1.73 295.41 C0.78 295.41 0 294.63 0 293.68 C0 292.73 0.78 291.96 1.73 291.96 C2.68 291.96 3.45
									 292.73 3.45 293.68 C3.45 294.63 2.68 295.41 1.73 295.41 ZM1.73 292.78 C1.21 292.78 0.82 293.21
									 0.82 293.68 C0.82 294.2 1.25 294.59 1.73 294.59 C2.24 294.59 2.63 294.16 2.63 293.68 C2.63 293.17
									 2.24 292.78 1.73 292.78 Z" class="st23"/>
					</g>
					<g id="shape65-142" v:mID="65" v:groupContext="shape" transform="translate(32.334,-44.8099)">
						<title>Sheet.65</title>
						<path d="M4.4 293.17 C4.4 292.99 4.23 292.82 3.97 292.78 L3.15 292.65 C2.94 292.61 2.68 292.39 2.68 292.17
									 L2.55 291.35 C2.5 291.14 2.33 290.92 2.16 290.92 C1.99 290.92 1.81 291.09 1.77 291.35 L1.73
									 292.17 C1.68 292.39 1.47 292.65 1.25 292.65 L0.43 292.78 C0.22 292.82 0 292.99 0 293.17 C0 293.34
									 0.17 293.51 0.43 293.56 L1.25 293.68 C1.47 293.73 1.73 293.94 1.73 294.16 L1.86 294.98 C1.9
									 295.2 2.07 295.41 2.24 295.41 C2.42 295.41 2.59 295.24 2.59 294.98 L2.72 294.07 C2.76 293.86
									 2.98 293.64 3.19 293.6 L3.97 293.56 C4.23 293.47 4.4 293.34 4.4 293.17 Z" class="st23"/>
					</g>
					<g id="shape66-144" v:mID="66" v:groupContext="shape" transform="translate(5.74154,-34.9241)">
						<title>Sheet.66</title>
						<path d="M4.49 293.17 C4.49 292.99 4.32 292.82 4.06 292.78 L3.28 292.65 C3.07 292.61 2.81 292.39 2.81 292.17
									 L2.63 291.35 C2.59 291.14 2.42 290.92 2.24 290.92 C2.07 290.92 1.9 291.09 1.86 291.35 L1.73
									 292.17 C1.68 292.39 1.47 292.65 1.25 292.65 L0.43 292.78 C0.22 292.82 0 292.99 0 293.17 C0 293.34
									 0.17 293.51 0.43 293.56 L1.25 293.68 C1.47 293.73 1.73 293.94 1.73 294.16 L1.86 294.98 C1.9
									 295.2 2.07 295.41 2.24 295.41 C2.42 295.41 2.59 295.24 2.59 294.98 L2.72 294.07 C2.76 293.86
									 2.98 293.64 3.19 293.6 L3.97 293.56 C4.32 293.47 4.49 293.3 4.49 293.17 Z" class="st23"/>
					</g>
					<g id="shape67-146" v:mID="67" v:groupContext="shape" transform="translate(28.535,-16.5771)">
						<title>Sheet.67</title>
						<path d="M4.49 293.17 C4.49 292.99 4.32 292.82 4.06 292.78 L3.24 292.65 C3.02 292.61 2.76 292.39 2.76 292.17
									 L2.63 291.35 C2.59 291.14 2.42 290.92 2.24 290.92 C2.07 290.92 1.9 291.09 1.86 291.35 L1.73
									 292.17 C1.68 292.39 1.47 292.65 1.25 292.65 L0.43 292.78 C0.22 292.82 0 292.99 0 293.17 C0 293.34
									 0.17 293.51 0.43 293.56 L1.25 293.68 C1.47 293.73 1.73 293.94 1.73 294.16 L1.86 294.98 C1.9
									 295.2 2.07 295.41 2.24 295.41 C2.42 295.41 2.59 295.24 2.59 294.98 L2.72 294.07 C2.76 293.86
									 2.98 293.64 3.19 293.6 L3.97 293.56 C4.32 293.47 4.49 293.34 4.49 293.17 Z" class="st23"/>
					</g>
					<g id="shape68-148" v:mID="68" v:groupContext="shape" transform="translate(44.0761,-36.3055)">
						<title>Sheet.68</title>
						<path d="M4.49 293.17 C4.49 292.99 4.32 292.82 4.06 292.78 L3.24 292.65 C3.02 292.61 2.76 292.39 2.76 292.17
									 L2.63 291.35 C2.59 291.14 2.42 290.92 2.24 290.92 C2.07 290.92 1.9 291.09 1.86 291.35 L1.73
									 292.17 C1.68 292.39 1.47 292.65 1.25 292.65 L0.43 292.78 C0.22 292.82 0 292.99 0 293.17 C0 293.34
									 0.17 293.51 0.43 293.56 L1.25 293.68 C1.47 293.73 1.73 293.94 1.73 294.16 L1.86 294.98 C1.9
									 295.2 2.07 295.41 2.24 295.41 C2.42 295.41 2.59 295.24 2.59 294.98 L2.72 294.07 C2.76 293.86
									 2.98 293.64 3.19 293.6 L3.97 293.56 C4.32 293.51 4.49 293.34 4.49 293.17 Z" class="st23"/>
					</g>
					<g id="shape69-150" v:mID="69" v:groupContext="shape" transform="translate(23.3979,-3.15137)">
						<title>Sheet.69</title>
						<path d="M4.49 293.17 C4.49 292.99 4.32 292.82 4.06 292.78 L3.24 292.65 C3.02 292.61 2.76 292.39 2.76 292.17
									 L2.63 291.35 C2.59 291.14 2.42 290.92 2.24 290.92 C2.07 290.92 1.9 291.09 1.86 291.35 L1.73
									 292.17 C1.68 292.39 1.47 292.65 1.25 292.65 L0.43 292.78 C0.22 292.82 0 292.99 0 293.17 C0 293.34
									 0.17 293.51 0.43 293.56 L1.25 293.68 C1.47 293.73 1.73 293.94 1.73 294.16 L1.86 294.98 C1.9
									 295.2 2.07 295.41 2.24 295.41 C2.42 295.41 2.59 295.24 2.59 294.98 L2.72 294.07 C2.76 293.86
									 2.98 293.64 3.19 293.6 L3.97 293.56 C4.32 293.47 4.49 293.34 4.49 293.17 Z" class="st23"/>
					</g>
					<g id="shape70-152" v:mID="70" v:groupContext="shape" transform="translate(16.4476,-41.5291)">
						<title>Sheet.70</title>
						<path d="M0.47 295.41 C0.39 295.41 0.3 295.41 0.26 295.37 C0.04 295.24 0 294.98 0.13 294.76 C0.17 294.68
									 1.42 292.69 5.87 292.69 C5.87 292.69 5.87 292.69 5.87 292.69 C7.17 292.69 11.01 293.34 11.18
									 293.38 C11.4 293.43 11.57 293.64 11.53 293.9 C11.48 294.12 11.27 294.29 11.01 294.25 C10.97
									 294.25 7.08 293.6 5.87 293.6 C5.87 293.6 5.87 293.6 5.87 293.6 C1.99 293.6 0.86 295.24 0.86
									 295.24 C0.78 295.33 0.65 295.41 0.47 295.41 Z" class="st24"/>
					</g>
					<g id="shape71-154" v:mID="71" v:groupContext="shape" transform="translate(13.9437,-15.8)">
						<title>Sheet.71</title>
						<path d="M10.58 295.37 C10.4 295.37 10.23 295.28 10.19 295.11 C10.19 295.07 9.24 292.78 7.08 291.96 C4.79
									 291.05 0.47 291.09 0.43 291.09 C0.43 291.09 0.43 291.09 0.43 291.09 C0.17 291.09 0 290.92 0
									 290.66 C0 290.4 0.17 290.23 0.43 290.23 C0.6 290.23 4.96 290.23 7.38 291.18 C9.89 292.17 10.92
									 294.72 10.97 294.85 C11.05 295.07 10.92 295.33 10.71 295.41 C10.66 295.37 10.62 295.37 10.58
									 295.37 Z" class="st24"/>
					</g>
					<g id="shape72-156" v:mID="72" v:groupContext="shape" transform="translate(43.2127,-27.1536)">
						<title>Sheet.72</title>
						<path d="M2.98 295.41 C2.76 295.41 2.55 295.24 2.55 295.02 C2.46 293.81 0.86 292.61 0.26 292.22 C0.04 292.09
									 0 291.83 0.13 291.61 C0.26 291.4 0.52 291.35 0.73 291.48 C0.82 291.53 3.32 293.04 3.41 294.98
									 C3.41 295.15 3.24 295.37 2.98 295.41 C2.98 295.41 2.98 295.41 2.98 295.41 Z" class="st24"/>
					</g>
					<g id="shape73-158" v:mID="73" v:groupContext="shape" transform="translate(37.0826,-26.8514)">
						<title>Sheet.73</title>
						<path d="M0.47 295.41 C0.43 295.41 0.39 295.41 0.35 295.41 C0.13 295.37 0 295.11 0.04 294.89 C0.09 294.81
									 0.65 292.78 2.5 291.61 C2.72 291.48 2.98 291.57 3.11 291.74 C3.24 291.96 3.15 292.22 2.98 292.35
									 C1.42 293.3 0.91 295.11 0.91 295.11 C0.82 295.28 0.65 295.41 0.47 295.41 Z" class="st24"/>
					</g>
				</g>
			</g>
			<g id="shape85-160" v:mID="85" v:groupContext="shape">
				<title>Sheet.85</title>
				<desc>Environment Variables</desc>
				<v:textBlock v:margins="rect(4,4,4,4)" v:tabSpace="42.5197"/>
				<v:textRect cx="38.521" cy="285.411" width="77.05" height="20"/>
				<rect x="0" y="275.411" width="77.0419" height="20" class="st11"/>
				<text x="13.4" y="282.71" class="st25" v:langID="2057"><v:paragraph v:horizAlign="1"/><v:tabList/>Environment <tspan
							x="20.49" dy="1.2em" class="st26">Variables</tspan></text>			</g>
		</g>
		<g id="group143-164" transform="translate(513.223,-165.385)" v:mID="143" v:groupContext="group">
			<title>Sheet.143</title>
			<g id="group87-165" transform="translate(19.751,-28.633)" v:mID="87" v:groupContext="group">
				<title>Sheet.87</title>
				<g id="group88-166" v:mID="88" v:groupContext="group">
					<title>XMLID_4702_</title>
					<g id="shape89-167" v:mID="89" v:groupContext="shape" transform="translate(26.9397,-38.3793)">
						<title>XMLID_4709_</title>
						<path d="M0 284.99 L0 295.41 L10.6 295.41 L0 284.99 Z" class="st27"/>
					</g>
					<g id="shape90-169" v:mID="90" v:groupContext="shape" transform="translate(1.68861,0)">
						<title>XMLID_4708_</title>
						<path d="M24.08 246.64 L0 246.64 L0 269.21 L19.3 269.21 C24.72 269.21 29.15 273.64 29.15 279.06 C29.15 284.49
									 24.72 288.91 19.3 288.91 L0 288.91 L0 295.41 L35.78 295.41 L35.84 258.2 L24.08 258.2 L24.08
									 246.64 Z" class="st28"/>
					</g>
					<g id="shape91-171" v:mID="91" v:groupContext="shape" transform="translate(1.8785E-13,-7.6622)">
						<title>XMLID_4703_</title>
						<path d="M29.66 286.73 C29.66 281.94 25.78 278.06 20.99 278.06 L0 278.06 L0 295.41 L20.99 295.41 C25.78 295.41
									 29.66 291.53 29.66 286.73 ZM6.4 292.3 L4.57 292.3 L4.57 281.3 L6.4 281.3 L6.4 292.3 ZM17.45
									 292.3 L15.62 292.3 L10.75 284.37 L10.7 284.39 L10.7 292.31 L8.86 292.31 L8.86 281.3 L10.7 281.3
									 L15.57 289.22 L15.62 289.2 L15.62 281.29 L17.45 281.29 L17.45 292.3 ZM19.92 281.3 L21.76 281.3
									 L21.76 292.3 L19.92 292.3 L19.92 281.3 Z" class="st27"/>
					</g>
				</g>
			</g>
			<g id="shape136-173" v:mID="136" v:groupContext="shape">
				<title>Sheet.136</title>
				<desc>.INI file</desc>
				<v:textBlock v:margins="rect(4,4,4,4)" v:tabSpace="42.5197"/>
				<v:textRect cx="38.521" cy="285.411" width="77.05" height="20"/>
				<rect x="0" y="275.411" width="77.0419" height="20" class="st11"/>
				<text x="24.61" y="288.11" class="st25" v:langID="2057"><v:paragraph v:horizAlign="1"/><v:tabList/>.INI file</text>			</g>
		</g>
		<g id="group144-176" transform="translate(615.243,-165.385)" v:mID="144" v:groupContext="group">
			<title>Sheet.144</title>
			<g id="group104-177" transform="translate(14.119,-28.633)" v:mID="104" v:groupContext="group">
				<title>Sheet.104</title>
				<g id="group105-178" v:mID="105" v:groupContext="group">
					<title>Element</title>
					<g id="shape106-179" v:mID="106" v:groupContext="shape" transform="translate(14.6535,-24.7889)">
						<title>Sheet.106</title>
						<path d="M28.15 274.3 L28.15 295.41 L26.36 295.41 L26.36 274.88 C26.36 274.02 25.72 273.33 24.93 273.33 L0
									 273.33 L1.77 271.4 L25.46 271.4 C26.94 271.4 28.15 272.7 28.15 274.3 Z" class="st29"/>
					</g>
					<g id="shape107-181" v:mID="107" v:groupContext="shape" transform="translate(5.97942,-24.7889)">
						<title>Sheet.107</title>
						<path d="M1.79 280.87 L1.79 295.41 L0 295.41 L0 282.82 L1.79 280.87 Z" class="st29"/>
					</g>
					<g id="shape108-183" v:mID="108" v:groupContext="shape" transform="translate(5.97942,-37.3797)">
						<title>Sheet.108</title>
						<path d="M10.45 283.99 L10.45 292.38 C10.45 294.05 9.2 295.41 7.67 295.41 L0 295.41 L1.79 293.46 L8.67 285.93
									 L10.45 283.99 Z" class="st29"/>
					</g>
					<g id="shape109-185" v:mID="109" v:groupContext="shape" transform="translate(0,-11.6195)">
						<title>Sheet.109</title>
						<path d="M46.74 284.18 L2.07 284.18 C0.92 284.18 0 285.05 0 286.11 L0 293.47 C0 294.54 0.93 295.41 2.07 295.41
									 L46.74 295.41 C47.88 295.41 48.8 294.54 48.8 293.47 L48.8 286.11 C48.8 285.05 47.88 284.18 46.74
									 284.18 ZM16.13 290.63 A6.37881 6.37881 0 0 1 16.09 291.39 A2.37633 2.37633 0 0 1 15.92 292.03
									 A1.71576 1.71576 0 0 1 15.18 292.87 A2.43257 2.43257 0 0 1 13.92 293.17 A2.607 2.607 0 0 1 12.81
									 292.96 A1.63569 1.63569 0 0 1 12.09 292.28 A2.45258 2.45258 0 0 1 11.86 291.7 A2.35154 2.35154
									 0 0 1 11.76 291.08 a0.589077 0.589077 0 0 1 0.623393 -0.645316 a0.501383 0.501383 0 0 1 0.398437
									 0.152512 A1.06091 1.06091 0 0 1 12.99 291.06 A4.52865 4.52865 -180 0 0 13.14 291.62 a0.822611
									 0.822611 -180 0 0 0.255458 0.353637 a0.778764 0.778764 -180 0 0 0.510915 0.147746 C14.5 292.12
									 14.79 291.69 14.79 290.82 L14.79 287.19 C14.79 286.92 14.85 286.72 14.97 286.58 a0.607188 0.607188
									 0 0 1 0.4766 -0.201125 a0.626252 0.626252 0 0 1 0.490898 0.201125 C16.06 286.72 16.12 286.92
									 16.12 287.19 L16.13 290.63 ZM22.25 292.16 A2.03318 2.03318 0 0 1 21.36 292.9 A3.36384 3.36384
									 0 0 1 19.95 293.17 C19.31 293.17 18.77 293.05 18.35 292.81 A2.1447 2.1447 0 0 1 17.62 292.1
									 A1.60233 1.60233 0 0 1 17.34 291.24 a0.581452 0.581452 0 0 1 0.59575 -0.587171 a0.507102 0.507102
									 0 0 1 0.356497 0.134401 A1.0714 1.0714 0 0 1 18.54 291.19 A2.59556 2.59556 -180 0 0 18.81 291.71
									 A1.09809 1.09809 -180 0 0 19.22 292.06 A1.52512 1.52512 -180 0 0 19.92 292.2 C20.31 292.2 20.63
									 292.11 20.88 291.92 a0.829284 0.829284 -180 0 0 0.368888 -0.68821 a0.726338 0.726338 -180 0
									 0 -0.199219 -0.530932 A1.28301 1.28301 -180 0 0 20.53 290.39 C20.32 290.32 20.04 290.24 19.69
									 290.16 A6.1958 6.1958 0 0 1 18.5 289.78 A1.91593 1.91593 0 0 1 17.75 289.17 A1.57564 1.57564
									 0 0 1 17.47 288.22 A1.63092 1.63092 0 0 1 17.76 287.26 A1.86637 1.86637 0 0 1 18.62 286.61 A3.50396
									 3.50396 0 0 1 19.94 286.38 A3.2628 3.2628 0 0 1 20.99 286.53 A2.21619 2.21619 0 0 1 21.72 286.93
									 A1.66715 1.66715 0 0 1 22.14 287.45 A1.20103 1.20103 0 0 1 22.28 287.99 a0.629112 0.629112 0
									 0 1 -0.168716 0.427987 a0.535698 0.535698 0 0 1 -0.418455 0.19064 a0.4766 0.4766 0 0 1 -0.346965
									 -0.114384 A1.5642 1.5642 0 0 1 21.09 288.12 A1.67668 1.67668 -180 0 0 20.66 287.54 C20.49 287.4
									 20.22 287.33 19.85 287.33 A1.39262 1.39262 -180 0 0 19.02 287.56 C18.81 287.71 18.7 287.89 18.7
									 288.1 a0.555715 0.555715 -180 0 0 0.107712 0.340292 a0.899821 0.899821 -180 0 0 0.295492 0.245926
									 A1.95978 1.95978 -180 0 0 19.49 288.85 C19.61 288.89 19.83 288.94 20.12 289.02 A9.97238 9.97238
									 0 0 1 21.13 289.3 A3.05786 3.05786 0 0 1 21.89 289.68 A1.56897 1.56897 0 0 1 22.38 290.25 A1.82061
									 1.82061 0 0 1 22.56 291.09 A1.92546 1.92546 0 0 1 22.25 292.16 ZM29.61 291.15 A2.98066 2.98066
									 0 0 1 28.99 292.23 A2.69279 2.69279 0 0 1 27.98 292.93 A3.66219 3.66219 0 0 1 26.61 293.17 A3.62216
									 3.62216 0 0 1 25.23 292.93 A2.73378 2.73378 0 0 1 24.21 292.22 A2.98161 2.98161 0 0 1 23.6 291.13
									 A4.38472 4.38472 0 0 1 23.39 289.76 A4.24841 4.24841 0 0 1 23.6 288.37 A2.9797 2.9797 0 0 1
									 24.23 287.29 A2.7414 2.7414 0 0 1 25.24 286.62 A3.62216 3.62216 0 0 1 26.58 286.38 C27.26 286.38
									 27.85 286.52 28.33 286.79 A2.68802 2.68802 0 0 1 29.44 287.97 A4.0225 4.0225 0 0 1 29.82 289.77
									 A4.3952 4.3952 0 0 1 29.61 291.15 L29.61 291.15 ZM36.47 292.31 C36.47 292.89 36.23 293.17 35.75
									 293.17 a0.9532 0.9532 0 0 1 -0.322182 -0.0514728 a0.827377 0.827377 0 0 1 -0.268802 -0.162997
									 A1.55753 1.55753 0 0 1 34.93 292.7 C34.86 292.6 34.79 292.49 34.71 292.39 L32.22 288.56 L32.22
									 292.41 C32.22 292.66 32.16 292.85 32.04 292.98 a0.620533 0.620533 0 0 1 -0.900774 0 a0.836909
									 0.836909 0 0 1 -0.16967 -0.567154 L30.97 287.34 A1.4298 1.4298 0 0 1 31.04 286.84 a0.723479
									 0.723479 0 0 1 0.28596 -0.329807 a0.770185 0.770185 0 0 1 0.425127 -0.126776 a0.729198 0.729198
									 0 0 1 0.30693 0.0581452 a0.712993 0.712993 0 0 1 0.224002 0.156325 A1.54704 1.54704 0 0 1 32.48
									 286.85 C32.55 286.96 32.62 287.06 32.69 287.18 L35.25 291.05 L35.25 287.14 C35.25 286.89 35.3
									 286.7 35.41 286.57 a0.549996 0.549996 0 0 1 0.441331 -0.19064 a0.57192 0.57192 0 0 1 0.45277
									 0.19064 C36.42 286.7 36.47 286.89 36.47 287.14 L36.47 292.31 Z" class="st29"/>
					</g>
					<g id="shape110-187" v:mID="110" v:groupContext="shape" transform="translate(24.7374,-14.9205)">
						<title>Sheet.110</title>
						<path d="M2.83 291.01 A1.82347 1.82347 -180 0 0 1.84 290.74 A1.79583 1.79583 -180 0 0 1.1 290.89 A1.62044
									 1.62044 -180 0 0 0.52 291.33 A2.09704 2.09704 -180 0 0 0.14 292.06 A3.30188 3.30188 -180 0 0
									 -0 293.06 A3.37909 3.37909 -180 0 0 0.14 294.07 A2.08655 2.08655 -180 0 0 0.54 294.82 A1.67382
									 1.67382 -180 0 0 1.13 295.27 A1.87018 1.87018 -180 0 0 2.8 295.16 A1.76151 1.76151 -180 0 0
									 3.48 294.37 A3.05024 3.05024 -180 0 0 3.74 293.06 A3.08074 3.08074 -180 0 0 3.5 291.81 A1.74245
									 1.74245 -180 0 0 2.83 291.01 Z" class="st29"/>
					</g>
					<g id="shape111-189" v:mID="111" v:groupContext="shape" transform="translate(5.99277,0)">
						<title>Sheet.111</title>
						<path d="M35.93 284.76 C35.43 284.76 35.03 285.19 35.03 285.73 L35.03 291.92 C35.03 292.78 34.39 293.47 33.6
									 293.47 L3.22 293.47 C2.43 293.47 1.79 292.78 1.79 291.92 L1.79 285.73 C1.79 285.19 1.39 284.76
									 0.89 284.76 C0.4 284.76 0 285.19 0 285.73 L0 292.51 C0 294.11 1.2 295.41 2.68 295.41 L34.14
									 295.41 C35.62 295.41 36.82 294.11 36.82 292.51 L36.82 285.73 C36.82 285.19 36.42 284.76 35.93
									 284.76 Z" class="st29"/>
					</g>
				</g>
			</g>
			<g id="shape139-191" v:mID="139" v:groupContext="shape">
				<title>Sheet.139</title>
				<desc>.JSON file</desc>
				<v:textBlock v:margins="rect(4,4,4,4)" v:tabSpace="42.5197"/>
				<v:textRect cx="38.521" cy="285.411" width="77.05" height="20"/>
				<rect x="0" y="275.411" width="77.0419" height="20" class="st11"/>
				<text x="19.62" y="288.11" class="st25" v:langID="2057"><v:paragraph v:horizAlign="1"/><v:tabList/>.JSON file</text>			</g>
		</g>
		<g id="group145-194" transform="translate(411.203,-37.8039)" v:mID="145" v:groupContext="group">
			<title>Sheet.145</title>
			<g id="group112-195" transform="translate(14.119,-28.633)" v:mID="112" v:groupContext="group">
				<title>Sheet.112</title>
				<g id="group113-196" v:mID="113" v:groupContext="group">
					<title>Layer_19</title>
					<g id="shape114-197" v:mID="114" v:groupContext="shape" transform="translate(22.7751,-37.4163)">
						<title>Sheet.114</title>
						<path d="M1.63 295.41 C0.73 295.41 0 294.68 0 293.78 L0 285.65 C0 284.75 0.73 284.02 1.63 284.02 C2.53 284.02
									 3.25 284.75 3.25 285.65 L3.25 293.78 C3.25 294.68 2.53 295.41 1.63 295.41 Z" class="st30"/>
					</g>
					<g id="shape115-199" v:mID="115" v:groupContext="shape" transform="translate(14.6411,-37.4163)">
						<title>Sheet.115</title>
						<path d="M1.63 295.41 C0.73 295.41 0 294.68 0 293.78 L0 285.65 C0 284.75 0.73 284.02 1.63 284.02 C2.53 284.02
									 3.25 284.75 3.25 285.65 L3.25 293.78 C3.25 294.68 2.53 295.41 1.63 295.41 Z" class="st30"/>
					</g>
					<g id="shape116-201" v:mID="116" v:groupContext="shape" transform="translate(30.9091,-37.4163)">
						<title>Sheet.116</title>
						<path d="M1.63 295.41 C0.73 295.41 0 294.68 0 293.78 L0 285.65 C0 284.75 0.73 284.02 1.63 284.02 C2.53 284.02
									 3.25 284.75 3.25 285.65 L3.25 293.78 C3.25 294.68 2.53 295.41 1.63 295.41 Z" class="st30"/>
					</g>
					<g id="shape117-203" v:mID="117" v:groupContext="shape" transform="translate(22.7751,-2.84217E-13)">
						<title>Sheet.117</title>
						<path d="M1.63 295.41 C0.73 295.41 0 294.68 0 293.78 L0 285.65 C0 284.75 0.73 284.02 1.63 284.02 C2.53 284.02
									 3.25 284.75 3.25 285.65 L3.25 293.78 C3.25 294.68 2.53 295.41 1.63 295.41 Z" class="st30"/>
					</g>
					<g id="shape118-205" v:mID="118" v:groupContext="shape" transform="translate(14.6411,-2.84217E-13)">
						<title>Sheet.118</title>
						<path d="M1.63 295.41 C0.73 295.41 0 294.68 0 293.78 L0 285.65 C0 284.75 0.73 284.02 1.63 284.02 C2.53 284.02
									 3.25 284.75 3.25 285.65 L3.25 293.78 C3.25 294.68 2.53 295.41 1.63 295.41 Z" class="st30"/>
					</g>
					<g id="shape119-207" v:mID="119" v:groupContext="shape" transform="translate(30.9091,-2.84217E-13)">
						<title>Sheet.119</title>
						<path d="M1.63 295.41 C0.73 295.41 0 294.68 0 293.78 L0 285.65 C0 284.75 0.73 284.02 1.63 284.02 C2.53 284.02
									 3.25 284.75 3.25 285.65 L3.25 293.78 C3.25 294.68 2.53 295.41 1.63 295.41 Z" class="st30"/>
					</g>
					<g id="shape120-209" v:mID="120" v:groupContext="shape" transform="translate(37.4163,-22.7751)">
						<title>Sheet.120</title>
						<path d="M9.76 295.41 L1.63 295.41 C0.73 295.41 0 294.68 0 293.78 C0 292.89 0.73 292.16 1.63 292.16 L9.76
									 292.16 C10.66 292.16 11.39 292.89 11.39 293.78 C11.39 294.68 10.66 295.41 9.76 295.41 Z"
								class="st30"/>
					</g>
					<g id="shape121-211" v:mID="121" v:groupContext="shape" transform="translate(37.4163,-30.9091)">
						<title>Sheet.121</title>
						<path d="M9.76 295.41 L1.63 295.41 C0.73 295.41 0 294.68 0 293.78 C0 292.89 0.73 292.16 1.63 292.16 L9.76
									 292.16 C10.66 292.16 11.39 292.89 11.39 293.78 C11.39 294.68 10.66 295.41 9.76 295.41 Z"
								class="st30"/>
					</g>
					<g id="shape122-213" v:mID="122" v:groupContext="shape" transform="translate(37.4163,-14.6411)">
						<title>Sheet.122</title>
						<path d="M9.76 295.41 L1.63 295.41 C0.73 295.41 0 294.68 0 293.78 C0 292.89 0.73 292.16 1.63 292.16 L9.76
									 292.16 C10.66 292.16 11.39 292.89 11.39 293.78 C11.39 294.68 10.66 295.41 9.76 295.41 Z"
								class="st30"/>
					</g>
					<g id="shape123-215" v:mID="123" v:groupContext="shape" transform="translate(2.43805E-13,-22.7751)">
						<title>Sheet.123</title>
						<path d="M9.76 295.41 L1.63 295.41 C0.73 295.41 0 294.68 0 293.78 C0 292.89 0.73 292.16 1.63 292.16 L9.76
									 292.16 C10.66 292.16 11.39 292.89 11.39 293.78 C11.39 294.68 10.66 295.41 9.76 295.41 Z"
								class="st30"/>
					</g>
					<g id="shape124-217" v:mID="124" v:groupContext="shape" transform="translate(2.43805E-13,-30.9091)">
						<title>Sheet.124</title>
						<path d="M9.76 295.41 L1.63 295.41 C0.73 295.41 0 294.68 0 293.78 C0 292.89 0.73 292.16 1.63 292.16 L9.76
									 292.16 C10.66 292.16 11.39 292.89 11.39 293.78 C11.39 294.68 10.66 295.41 9.76 295.41 Z"
								class="st30"/>
					</g>
					<g id="shape125-219" v:mID="125" v:groupContext="shape" transform="translate(2.43805E-13,-14.6411)">
						<title>Sheet.125</title>
						<path d="M9.76 295.41 L1.63 295.41 C0.73 295.41 0 294.68 0 293.78 C0 292.89 0.73 292.16 1.63 292.16 L9.76
									 292.16 C10.66 292.16 11.39 292.89 11.39 293.78 C11.39 294.68 10.66 295.41 9.76 295.41 Z"
								class="st30"/>
					</g>
					<g id="shape126-221" v:mID="126" v:groupContext="shape" transform="translate(8.13397,-8.13397)">
						<title>Sheet.126</title>
						<path d="M27.66 295.41 L4.88 295.41 C2.19 295.41 0 293.22 0 290.53 L0 267.76 C0 265.06 2.19 262.88 4.88 262.88
									 L27.66 262.88 C30.35 262.88 32.54 265.06 32.54 267.76 L32.54 290.53 C32.54 293.22 30.35 295.41
									 27.66 295.41 ZM4.88 266.13 C3.98 266.13 3.25 266.86 3.25 267.76 L3.25 290.53 C3.25 291.43 3.98
									 292.16 4.88 292.16 L27.66 292.16 C28.55 292.16 29.28 291.43 29.28 290.53 L29.28 267.76 C29.28
									 266.86 28.55 266.13 27.66 266.13 L4.88 266.13 Z" class="st31"/>
					</g>
					<g id="shape127-223" v:mID="127" v:groupContext="shape" transform="translate(13.0144,-13.0144)">
						<title>Sheet.127</title>
						<path d="M16.27 295.41 L6.51 295.41 C5.61 295.41 4.88 294.68 4.88 293.78 L4.88 292.16 C4.88 291.26 4.15 290.53
									 3.25 290.53 L1.63 290.53 C0.73 290.53 0 289.8 0 288.9 L0 279.14 C0 278.25 0.73 277.52 1.63 277.52
									 L3.25 277.52 C4.15 277.52 4.88 276.79 4.88 275.89 L4.88 274.26 C4.88 273.36 5.61 272.64 6.51
									 272.64 L16.27 272.64 C17.17 272.64 17.89 273.36 17.89 274.26 L17.89 275.89 C17.89 276.79 18.62
									 277.52 19.52 277.52 L21.15 277.52 C22.05 277.52 22.78 278.25 22.78 279.14 L22.78 288.9 C22.78
									 289.8 22.05 290.53 21.15 290.53 L19.52 290.53 C18.62 290.53 17.89 291.26 17.89 292.16 L17.89
									 293.78 C17.89 294.68 17.17 295.41 16.27 295.41 ZM8.13 292.16 L14.64 292.16 C14.64 289.47 16.83
									 287.28 19.52 287.28 L19.52 280.77 C16.83 280.77 14.64 278.58 14.64 275.89 L8.13 275.89 C8.13
									 278.58 5.94 280.77 3.25 280.77 L3.25 287.28 C5.94 287.28 8.13 289.47 8.13 292.16 Z"
								class="st32"/>
					</g>
				</g>
			</g>
			<g id="shape140-225" v:mID="140" v:groupContext="shape">
				<title>Sheet.140</title>
				<desc>In Memory</desc>
				<v:textBlock v:margins="rect(4,4,4,4)" v:tabSpace="42.5197"/>
				<v:textRect cx="38.521" cy="285.411" width="77.05" height="20"/>
				<rect x="0" y="275.411" width="77.0419" height="20" class="st11"/>
				<text x="16.9" y="288.11" class="st25" v:langID="2057"><v:paragraph v:horizAlign="1"/><v:tabList/>In Memory</text>			</g>
		</g>
		<g id="group146-228" transform="translate(513.223,-37.8039)" v:mID="146" v:groupContext="group">
			<title>Sheet.146</title>
			<g id="group128-229" transform="translate(14.119,-37.0537)" v:mID="128" v:groupContext="group">
				<title>Sheet.128</title>
				<g id="group129-230" v:mID="129" v:groupContext="group">
					<title>Sheet.129</title>
					<g id="shape130-231" v:mID="130" v:groupContext="shape" transform="translate(0,-8.37333)">
						<title>Sheet.130</title>
						<path d="M46.66 263.4 L2.14 263.4 C0.96 263.4 0 264.36 0 265.54 L0 293.27 C0 294.45 0.96 295.41 2.14 295.41
									 L46.66 295.41 C47.85 295.41 48.8 294.45 48.8 293.27 L48.8 265.54 C48.8 264.36 47.85 263.4 46.66
									 263.4 Z" class="st33"/>
					</g>
					<g id="shape131-233" v:mID="131" v:groupContext="shape" transform="translate(2.7063,-13.6721)">
						<title>Sheet.131</title>
						<rect x="0" y="271.265" width="43.3914" height="24.1466" class="st34"/>
					</g>
					<g id="group132-235" transform="translate(6.00438,-32.2799)" v:mID="132" v:groupContext="group">
						<title>Sheet.132</title>
						<g id="shape133-236" v:mID="133" v:groupContext="shape">
							<title>Sheet.133</title>
							<path d="M0.49 291.09 C0.38 291.09 0.26 291.14 0.17 291.23 C0 291.4 0 291.68 0.17 291.86 L1.55 293.23
										 L0.17 294.61 C0 294.78 0 295.06 0.17 295.24 C0.35 295.41 0.63 295.41 0.8 295.24 L2.5 293.55
										 C2.67 293.37 2.67 293.09 2.5 292.92 L0.8 291.23 C0.72 291.14 0.6 291.09 0.49 291.09 Z"
									class="st35"/>
						</g>
						<g id="shape134-238" v:mID="134" v:groupContext="shape" transform="translate(3.95388,-2.17999)">
							<title>Sheet.134</title>
							<path d="M0.45 294.52 C0.2 294.52 0 294.72 0 294.97 C0 295.21 0.2 295.41 0.45 295.41 L2.84 295.41 C3.08
										 295.41 3.28 295.21 3.28 294.97 C3.28 294.72 3.08 294.52 2.84 294.52 L0.45 294.52 Z"
									class="st36"/>
						</g>
					</g>
					<g id="shape135-240" v:mID="135" v:groupContext="shape" transform="translate(6.32983,-2.27374E-13)">
						<title>Sheet.135</title>
						<path d="M32.79 295.41 C34.9 295.41 36.14 292.97 34.83 291.32 C33.86 290.09 32.52 289.16 30.94 288.7 L24.33
									 286.8 C23.65 285.93 23.48 284.9 23.66 283.75 L24.83 279.21 C25.45 279.18 25.72 278.88 25.71
									 278.37 C25.69 277.88 25.86 277.42 26.11 277 C26.15 276.94 26.17 276.87 26.17 276.82 C26.17 276.58
									 25.84 276.17 25.88 275.93 C25.96 275.48 26.6 274.99 26.47 274.55 C26.13 273.44 25.23 273.97
									 25.23 273.97 C25.23 273.97 26 268.68 25.23 267.17 C24.7 266.12 24 265.29 23.19 264.66 C23.19
									 264.66 23.19 264.66 23.19 264.66 C21.91 263.48 20.19 263.5 20.04 262.56 C20.04 262.56 19.79
									 262.7 19.82 263.2 C19.83 263.35 19.87 263.54 19.95 263.76 C19.53 263.56 19.26 263.34 19.09 263.11
									 C18.61 262.46 18.99 261.83 18.99 261.83 C15.98 261.91 14.71 263.84 14.68 263.9 C14.67 263.9
									 14.67 263.9 14.67 263.9 C13.14 264.59 11.8 265.71 10.92 267.17 C10.04 268.62 10.92 273.97 10.92
									 273.97 C10.92 273.97 10.02 273.44 9.68 274.55 C9.54 274.99 10.19 275.48 10.26 275.93 C10.31
									 276.17 9.97 276.58 9.97 276.82 C9.97 276.87 10 276.94 10.04 277 C10.28 277.42 10.45 277.88 10.44
									 278.37 C10.43 278.88 10.69 279.18 11.31 279.21 L12.48 283.75 C12.79 284.87 12.6 285.89 11.81
									 286.8 L5.21 288.7 C3.63 289.16 2.28 290.09 1.31 291.32 C0 292.97 1.24 295.41 3.35 295.41 L32.79
									 295.41 Z" class="st37"/>
					</g>
				</g>
			</g>
			<g id="shape141-242" v:mID="141" v:groupContext="shape">
				<title>Sheet.141</title>
				<desc>Command Line</desc>
				<v:textBlock v:margins="rect(4,4,4,4)" v:tabSpace="42.5197"/>
				<v:textRect cx="38.521" cy="285.411" width="77.05" height="20"/>
				<rect x="0" y="275.411" width="77.0419" height="20" class="st11"/>
				<text x="8.52" y="288.11" class="st25" v:langID="2057"><v:paragraph v:horizAlign="1"/><v:tabList/>Command Line</text>			</g>
		</g>
	</g>
</svg>
